<svg width="620" height="620" viewBox="0 0 620 620" fill="none" xmlns="http://www.w3.org/2000/svg">
  <defs>
    <radialGradient id="glow" cx="50%" cy="50%" r="50%">
      <stop offset="0%" stop-color="#FFD54A" stop-opacity="0.55"/>
      <stop offset="70%" stop-color="#FFD54A" stop-opacity="0.08"/>
      <stop offset="100%" stop-color="#FFD54A" stop-opacity="0"/>
    </radialGradient>
    <linearGradient id="ring" x1="0" y1="0" x2="1" y2="1">
      <stop offset="0%" stop-color="#FFD54A"/>
      <stop offset="100%" stop-color="#B98A12"/>
    </linearGradient>
    <linearGradient id="coin" x1="0" y1="0" x2="0" y2="1">
      <stop offset="0%" stop-color="#1E2B4A"/>
      <stop offset="100%" stop-color="#0A1229"/>
    </linearGradient>
  </defs>

  <circle cx="310" cy="310" r="300" fill="url(#glow)" />
  <circle cx="310" cy="310" r="210" fill="url(#coin)" stroke="url(#ring)" stroke-width="24"/>
  <circle cx="310" cy="310" r="240" stroke="url(#ring)" stroke-width="10" stroke-opacity="0.65"/>

  <path d="M367 152L286 222L316 222L256 330L296 330L242 452L387 286L340 286L395 205L359 205L367 152Z" fill="#F6C63A"/>
  <path d="M223 365C253 344 273 300 282 272C292 240 307 200 352 173C323 174 286 184 261 214C243 236 234 267 229 301C225 327 220 348 209 366L223 365Z" fill="#E3B128" fill-opacity="0.92"/>

  <circle cx="145" cy="160" r="8" fill="#FFD54A"/>
  <circle cx="490" cy="210" r="6" fill="#FFD54A"/>
  <circle cx="460" cy="450" r="9" fill="#FFD54A"/>
  <circle cx="130" cy="430" r="7" fill="#FFD54A"/>
</svg>
